<svg xmlns="http://www.w3.org/2000/svg" viewBox="0 0 640 480" role="img" aria-labelledby="title desc">
  <title id="title">Nhận sửa chữa và bảo hành DEKTON</title>
  <desc id="desc">Ảnh đại diện nội bộ cho dịch vụ nhận sửa chữa và bảo hành DEKTON của Thiên Minh Group.</desc>
  <defs>
    <linearGradient id="bg" x1="0" x2="1" y1="0" y2="1">
      <stop offset="0" stop-color="#07341f"/>
      <stop offset=".54" stop-color="#0a2a1d"/>
      <stop offset="1" stop-color="#12080b"/>
    </linearGradient>
    <radialGradient id="glow" cx=".78" cy=".22" r=".8">
      <stop offset="0" stop-color="#315d45" stop-opacity=".72"/>
      <stop offset="1" stop-color="#062014" stop-opacity="0"/>
    </radialGradient>
  </defs>
  <rect width="640" height="480" fill="url(#bg)"/>
  <rect width="640" height="480" fill="url(#glow)"/>
  <path d="M428 30c70 48 112 130 104 222-7 85-52 147-132 186h240V0H388c13 9 27 18 40 30z" fill="#081018" opacity=".34"/>
  <path d="M42 70h226c70 0 128 50 139 118 13 79-41 152-119 164l-214 33" fill="none" stroke="#ffffff" stroke-opacity=".07" stroke-width="46" stroke-linecap="round"/>
  <rect x="54" y="55" width="532" height="370" rx="30" fill="#ffffff" opacity=".06" stroke="#ffffff" stroke-opacity=".14" stroke-width="2"/>
  <rect x="86" y="88" width="468" height="130" rx="18" fill="#07120f" opacity=".8"/>
  <text x="320" y="163" text-anchor="middle" fill="#ff1717" font-family="Arial Black, Arial, Helvetica, sans-serif" font-size="64" font-weight="900" font-style="italic">DEKTON</text>
  <line x1="143" y1="184" x2="497" y2="184" stroke="#ffffff" stroke-width="4" stroke-linecap="round" opacity=".94"/>
  <text x="320" y="207" text-anchor="middle" fill="#ffffff" font-family="Arial, Helvetica, sans-serif" font-size="17" letter-spacing="4">PROFESSIONAL POWER TOOL SOLUTIONS</text>
  <rect x="78" y="258" width="484" height="118" rx="22" fill="#ffffff" opacity=".94"/>
  <rect x="78" y="258" width="10" height="118" rx="5" fill="#d71920"/>
  <text x="320" y="310" text-anchor="middle" fill="#171717" font-family="Arial, Helvetica, sans-serif" font-size="32" font-weight="900">Nhận sửa chữa / bảo hành</text>
  <text x="320" y="348" text-anchor="middle" fill="#d71920" font-family="Arial, Helvetica, sans-serif" font-size="32" font-weight="900">máy DEKTON</text>
  <text x="320" y="397" text-anchor="middle" fill="#ffffff" font-family="Arial, Helvetica, sans-serif" font-size="20" font-weight="800">Thiên Minh Group kiểm tra - tư vấn - báo giá trước</text>
</svg>
