<svg xmlns="http://www.w3.org/2000/svg" viewBox="0 0 2400 1400" role="img" aria-label="DEKTON cinematic industrial campaign background">
  <defs>
    <linearGradient id="sky" x1="0" y1="0" x2="1" y2="1">
      <stop offset="0" stop-color="#fff6f0"/>
      <stop offset=".34" stop-color="#f4faf7"/>
      <stop offset=".72" stop-color="#cfe3e1"/>
      <stop offset="1" stop-color="#fff1f1"/>
    </linearGradient>
    <radialGradient id="sun" cx="20%" cy="22%" r="40%">
      <stop offset="0" stop-color="#ffd36f" stop-opacity=".85"/>
      <stop offset=".42" stop-color="#ff7a2b" stop-opacity=".34"/>
      <stop offset="1" stop-color="#ffffff" stop-opacity="0"/>
    </radialGradient>
    <radialGradient id="core" cx="68%" cy="42%" r="48%">
      <stop offset="0" stop-color="#13201f" stop-opacity=".9"/>
      <stop offset=".38" stop-color="#0b7046" stop-opacity=".55"/>
      <stop offset=".68" stop-color="#d71920" stop-opacity=".22"/>
      <stop offset="1" stop-color="#ffffff" stop-opacity="0"/>
    </radialGradient>
    <linearGradient id="toolBody" x1="0" y1="0" x2="1" y2="1">
      <stop offset="0" stop-color="#111719"/>
      <stop offset=".36" stop-color="#3a4042"/>
      <stop offset=".7" stop-color="#161b1d"/>
      <stop offset="1" stop-color="#050708"/>
    </linearGradient>
    <linearGradient id="redHot" x1="0" y1="0" x2="1" y2="1">
      <stop offset="0" stop-color="#ff812c"/>
      <stop offset=".48" stop-color="#ef2629"/>
      <stop offset="1" stop-color="#a70f16"/>
    </linearGradient>
    <filter id="glow" x="-80%" y="-80%" width="260%" height="260%">
      <feGaussianBlur stdDeviation="18" result="blur"/>
      <feMerge>
        <feMergeNode in="blur"/>
        <feMergeNode in="SourceGraphic"/>
      </feMerge>
    </filter>
    <filter id="softShadow" x="-30%" y="-30%" width="160%" height="160%">
      <feDropShadow dx="0" dy="28" stdDeviation="24" flood-color="#0b1113" flood-opacity=".28"/>
    </filter>
  </defs>

  <rect width="2400" height="1400" fill="url(#sky)"/>
  <rect width="2400" height="1400" fill="url(#sun)"/>
  <rect width="2400" height="1400" fill="url(#core)"/>

  <g opacity=".42" stroke="#26323c" stroke-width="1" fill="none">
    <path d="M0 210h2400M0 360h2400M0 510h2400M0 660h2400M0 810h2400M0 960h2400M0 1110h2400"/>
    <path d="M150 0v1400M300 0v1400M450 0v1400M600 0v1400M750 0v1400M900 0v1400M1050 0v1400M1200 0v1400M1350 0v1400M1500 0v1400M1650 0v1400M1800 0v1400M1950 0v1400M2100 0v1400M2250 0v1400"/>
  </g>

  <g opacity=".48" fill="#1d2429">
    <path d="M0 982h220v-210h94v210h142v-330h108v330h138v-244h94v244h168v-405h124v405h148v-292h96v292h174v-362h112v362h152v-252h84v252h208v-432h128v432h270v418H0z"/>
    <rect x="0" y="992" width="2400" height="10" fill="#d71920" opacity=".72"/>
  </g>

  <g transform="translate(1365 64)" filter="url(#softShadow)">
    <ellipse cx="250" cy="118" rx="118" ry="34" fill="#0c1215"/>
    <rect x="158" y="88" width="232" height="76" rx="36" fill="#f9fbf7"/>
    <rect x="274" y="98" width="100" height="56" rx="22" fill="#0f5e7a"/>
    <rect x="172" y="118" width="74" height="25" rx="10" fill="#ff7928"/>
    <path d="M390 118h112l50 36H382z" fill="#d71920"/>
    <path d="M160 124H72L26 76l12 84z" fill="#ff7928"/>
    <path d="M248 88 90 20M274 88 448 10M256 88 224 0M266 88 308 2" stroke="#10171b" stroke-width="9" stroke-linecap="round"/>
    <ellipse cx="268" cy="86" rx="250" ry="10" fill="#10171b" opacity=".62"/>
    <path d="M266 164v202M314 164v202" stroke="#15191b" stroke-width="5"/>
  </g>

  <g transform="translate(982 322) rotate(-4)" filter="url(#softShadow)">
    <rect x="154" y="72" width="270" height="406" rx="58" fill="url(#toolBody)"/>
    <rect x="188" y="100" width="202" height="78" rx="18" fill="#2f3638"/>
    <rect x="218" y="122" width="118" height="30" rx="6" fill="#d71920"/>
    <rect x="263" y="478" width="105" height="292" rx="46" fill="#101416"/>
    <rect x="280" y="526" width="62" height="154" rx="22" fill="url(#redHot)"/>
    <rect x="194" y="742" width="258" height="122" rx="24" fill="#262c2f"/>
    <rect x="222" y="766" width="88" height="45" rx="10" fill="#d71920"/>
    <rect x="332" y="766" width="68" height="45" rx="10" fill="#ff8a32"/>
    <path d="M376 126h272c62 0 112 46 112 102v12c0 58-51 105-116 105H414z" fill="#242b2d"/>
    <rect x="664" y="162" width="190" height="66" rx="24" fill="#101416"/>
    <rect x="830" y="178" width="160" height="34" rx="14" fill="#272d30"/>
    <circle cx="174" cy="402" r="29" fill="#d71920"/>
    <path d="M279 70 232 0M368 74 458 0M264 778l-132 142M420 786l132 148" stroke="#111517" stroke-width="7" stroke-linecap="round"/>
    <path d="M310 846h80" stroke="#ffb067" stroke-width="8" stroke-linecap="round" opacity=".72"/>
  </g>

  <g filter="url(#glow)" opacity=".82" stroke-linecap="round" fill="none">
    <path d="M1510 482c226-4 424 92 598 286" stroke="#31c3ff" stroke-width="10"/>
    <path d="M1460 558c290 14 530 116 720 306" stroke="#d71920" stroke-width="10"/>
    <path d="M1572 648h336M1644 708h250M1514 780h450" stroke="#37bdf8" stroke-width="8"/>
    <path d="M1560 648h48M1920 648h92M1486 780h54M1988 780h88" stroke="#ef2629" stroke-width="9"/>
  </g>

  <g opacity=".72">
    <path d="M1520 310l820-146-740 236z" fill="#ff7b25" opacity=".2"/>
    <path d="M1180 180l-420 820" stroke="#d71920" stroke-width="3" opacity=".24"/>
    <path d="M1340 120l-420 980" stroke="#0b7046" stroke-width="3" opacity=".28"/>
  </g>
</svg>
