<svg xmlns="http://www.w3.org/2000/svg" viewBox="0 0 2400 1400" role="img" aria-label="DEKTON industrial AI campaign background">
  <defs>
    <linearGradient id="sky" x1="0" y1="0" x2="1" y2="1">
      <stop offset="0" stop-color="#fff3f3"/>
      <stop offset="0.42" stop-color="#eef7f2"/>
      <stop offset="1" stop-color="#f4f5f7"/>
    </linearGradient>
    <radialGradient id="sun" cx="16%" cy="28%" r="42%">
      <stop offset="0" stop-color="#f8c05a" stop-opacity=".5"/>
      <stop offset=".45" stop-color="#ff8a3d" stop-opacity=".16"/>
      <stop offset="1" stop-color="#ffffff" stop-opacity="0"/>
    </radialGradient>
    <radialGradient id="energy" cx="70%" cy="34%" r="46%">
      <stop offset="0" stop-color="#0b7046" stop-opacity=".35"/>
      <stop offset=".5" stop-color="#d71920" stop-opacity=".17"/>
      <stop offset="1" stop-color="#ffffff" stop-opacity="0"/>
    </radialGradient>
    <linearGradient id="tool" x1="0" y1="0" x2="1" y2="1">
      <stop offset="0" stop-color="#0c1114"/>
      <stop offset=".48" stop-color="#373c3d"/>
      <stop offset="1" stop-color="#111517"/>
    </linearGradient>
    <linearGradient id="orange" x1="0" y1="0" x2="1" y2="1">
      <stop offset="0" stop-color="#ff7b25"/>
      <stop offset="1" stop-color="#d71920"/>
    </linearGradient>
    <filter id="soft" x="-20%" y="-20%" width="140%" height="140%">
      <feGaussianBlur stdDeviation="1.8"/>
    </filter>
  </defs>

  <rect width="2400" height="1400" fill="url(#sky)"/>
  <rect width="2400" height="1400" fill="url(#sun)"/>
  <rect width="2400" height="1400" fill="url(#energy)"/>

  <g opacity=".28" stroke="#1b2430" stroke-width="1" fill="none">
    <path d="M0 220h2400M0 380h2400M0 540h2400M0 700h2400M0 860h2400M0 1020h2400"/>
    <path d="M180 0v1400M360 0v1400M540 0v1400M720 0v1400M900 0v1400M1080 0v1400M1260 0v1400M1440 0v1400M1620 0v1400M1800 0v1400M1980 0v1400M2160 0v1400"/>
  </g>

  <g opacity=".2" stroke="#0b7046" stroke-width="5" fill="none">
    <path d="M1460 250c220 20 385 120 510 300"/>
    <path d="M1510 330c150 40 270 120 360 245"/>
    <path d="M1550 420c95 25 180 82 248 170"/>
  </g>

  <g opacity=".36" transform="translate(1320 92)">
    <ellipse cx="250" cy="120" rx="112" ry="34" fill="#0d1518"/>
    <rect x="160" y="92" width="220" height="70" rx="34" fill="#f7f7f3"/>
    <rect x="268" y="100" width="96" height="54" rx="22" fill="#1b4b68"/>
    <rect x="172" y="122" width="70" height="23" rx="10" fill="#ff7b25"/>
    <path d="M382 121h102l48 32H374z" fill="#d71920"/>
    <path d="M160 126h-78l-44-44 10 76z" fill="#ff7b25"/>
    <path d="M247 90 112 30M272 90 420 24M255 90 224 8M265 90 298 10" stroke="#10171b" stroke-width="8" stroke-linecap="round"/>
    <ellipse cx="265" cy="88" rx="230" ry="10" fill="#10171b" opacity=".5"/>
    <path d="M268 162v186M310 160v186" stroke="#15191b" stroke-width="5"/>
  </g>

  <g transform="translate(1020 335) rotate(-4)" opacity=".42" filter="url(#soft)">
    <rect x="145" y="80" width="255" height="380" rx="54" fill="url(#tool)"/>
    <rect x="178" y="105" width="190" height="74" rx="18" fill="#2c3233"/>
    <rect x="205" y="125" width="110" height="28" rx="6" fill="#d71920"/>
    <rect x="248" y="460" width="98" height="275" rx="44" fill="#161a1c"/>
    <rect x="264" y="505" width="58" height="148" rx="22" fill="#ff7b25"/>
    <rect x="186" y="705" width="245" height="115" rx="24" fill="#252a2d"/>
    <rect x="214" y="728" width="82" height="42" rx="10" fill="#d71920"/>
    <rect x="318" y="728" width="64" height="42" rx="10" fill="#ff7b25"/>
    <path d="M358 132h255c58 0 105 43 105 96v10c0 54-48 98-108 98H394z" fill="#272c2e"/>
    <rect x="620" y="165" width="180" height="62" rx="22" fill="#15191b"/>
    <rect x="776" y="180" width="148" height="32" rx="13" fill="#262b2d"/>
    <circle cx="164" cy="384" r="26" fill="#d71920"/>
    <path d="M260 80 215 0M350 82 430 0M250 736l-120 130M395 744l120 135" stroke="#111517" stroke-width="6" stroke-linecap="round"/>
  </g>

  <g opacity=".22">
    <path d="M0 980h270v-210h92v210h140v-330h105v330h138v-245h92v245h168v-400h122v400h150v-290h92v290h170v-360h110v360h155v-250h82v250h205v-430h125v430h264v420H0z" fill="#1a2026"/>
    <path d="M0 1006h2400" stroke="#d71920" stroke-width="7" opacity=".65"/>
  </g>

  <g opacity=".32" stroke-linecap="round" fill="none">
    <path d="M1580 585h300M1640 636h210M1530 700h410" stroke="#2eb6ff" stroke-width="8"/>
    <path d="M1560 590h36M1888 585h56M1510 700h38M1960 700h64" stroke="#d71920" stroke-width="8"/>
  </g>
</svg>
